<svg xmlns="http://www.w3.org/2000/svg" viewBox="0 0 64 64" width="64" height="64">
  <defs>
    <radialGradient id="g" cx="50%" cy="42%" r="60%">
      <stop offset="0%" stop-color="#7fe8ff"/>
      <stop offset="55%" stop-color="#11b8ee"/>
      <stop offset="100%" stop-color="#0a8fc0"/>
    </radialGradient>
  </defs>
  <rect width="64" height="64" rx="14" fill="#03040a"/>
  <!-- neural constellation glyph -->
  <g stroke="url(#g)" stroke-width="1.6" fill="none" opacity="0.85">
    <path d="M16 22 L32 14 L48 24 M16 22 L24 40 M48 24 L40 42 M24 40 L40 42 M32 14 L34 30 M24 40 L34 30 M40 42 L34 30"/>
  </g>
  <g fill="url(#g)">
    <circle cx="32" cy="14" r="3.4"/>
    <circle cx="16" cy="22" r="2.8"/>
    <circle cx="48" cy="24" r="2.8"/>
    <circle cx="24" cy="40" r="2.8"/>
    <circle cx="40" cy="42" r="2.8"/>
    <circle cx="34" cy="30" r="2.4"/>
  </g>
  <circle cx="50" cy="16" r="1.4" fill="#ffb454"/>
  <circle cx="14" cy="44" r="1.2" fill="#ffd9a0"/>
</svg>
